<svg width="32" height="31" viewBox="0 0 32 31" fill="none" xmlns="http://www.w3.org/2000/svg">
<path d="M16 29.6053L19.1111 26.5381M23 26.5381C24.0314 26.5381 25.0206 26.1341 25.7499 25.4151C26.4792 24.6961 26.8889 23.7209 26.8889 22.704C26.8889 21.6871 26.4792 20.7119 25.7499 19.9929C25.0206 19.2739 24.0314 18.8699 23 18.8699C21.9686 18.8699 20.9794 19.2739 20.2501 19.9929C19.5208 20.7119 19.1111 21.6871 19.1111 22.704C19.1111 23.7209 19.5208 24.6961 20.2501 25.4151C20.9794 26.1341 21.9686 26.5381 23 26.5381V26.5381ZM12.8889 5.06726L16 2L12.8889 5.06726ZM9 12.7354C10.0314 12.7354 11.0206 12.3315 11.7499 11.6124C12.4792 10.8934 12.8889 9.9182 12.8889 8.90134C12.8889 7.88448 12.4792 6.90926 11.7499 6.19024C11.0206 5.47121 10.0314 5.06726 9 5.06726C7.9686 5.06726 6.97945 5.47121 6.25014 6.19024C5.52083 6.90926 5.11111 7.88448 5.11111 8.90134C5.11111 9.9182 5.52083 10.8934 6.25014 11.6124C6.97945 12.3315 7.9686 12.7354 9 12.7354V12.7354ZM9.77778 21.9372L22.2222 9.66815L9.77778 21.9372ZM5.88889 29.6053C6.92029 29.6053 7.90944 29.2014 8.63875 28.4824C9.36806 27.7633 9.77778 26.7881 9.77778 25.7713C9.77778 24.7544 9.36806 23.7792 8.63875 23.0602C7.90944 22.3411 6.92029 21.9372 5.88889 21.9372C4.85749 21.9372 3.86834 22.3411 3.13903 23.0602C2.40972 23.7792 2 24.7544 2 25.7713C2 26.7881 2.40972 27.7633 3.13903 28.4824C3.86834 29.2014 4.85749 29.6053 5.88889 29.6053V29.6053ZM26.1111 9.66815C27.1425 9.66815 28.1317 9.26421 28.861 8.54518C29.5903 7.82615 30 6.85094 30 5.83408C30 4.81722 29.5903 3.842 28.861 3.12297C28.1317 2.40395 27.1425 2 26.1111 2C25.0797 2 24.0906 2.40395 23.3613 3.12297C22.6319 3.842 22.2222 4.81722 22.2222 5.83408C22.2222 6.85094 22.6319 7.82615 23.3613 8.54518C24.0906 9.26421 25.0797 9.66815 26.1111 9.66815Z" stroke="#688197" stroke-width="2.5" stroke-linecap="round" stroke-linejoin="round"/>
</svg>
