<svg width="160" height="29" viewBox="0 0 160 29" fill="none" xmlns="http://www.w3.org/2000/svg">
<path d="M158.226 2.6416H152.906V26.4169H158.226V2.6416Z" fill="white"/>
<path d="M120.983 13.2085H115.662V26.417H120.983V13.2085Z" fill="white"/>
<path d="M110.342 7.95435V13.2084C110.342 16.1436 107.947 18.5212 104.992 18.5212H102.361L110.342 26.4463H102.804L89.503 13.2378H105.021V7.925H78.4186V2.6416H104.992C107.947 2.6416 110.342 5.01913 110.342 7.95435Z" fill="white"/>
<path d="M147.585 2.6416H115.662V7.925H147.585V2.6416Z" fill="white"/>
<path d="M147.585 13.2085H115.662V18.4919H147.585V13.2085Z" fill="white"/>
<path d="M4.6111 4.1097V5.98824H7.30092V7.45586H4.6111V11.2129H2.92627V2.64209H7.47828V4.1097H4.6111Z" fill="white"/>
<path d="M14.3654 2.46582C15.0157 2.46582 15.6068 2.58323 16.1685 2.81805C16.7301 3.05286 17.203 3.37574 17.6168 3.75732C18.0306 4.16825 18.3558 4.63788 18.5923 5.16622C18.8287 5.69456 18.947 6.28161 18.947 6.92736C18.947 7.57311 18.8287 8.16015 18.5923 8.68849C18.3558 9.21683 18.0306 9.71582 17.6168 10.0974C17.203 10.5083 16.7005 10.8019 16.1389 11.0367C15.5773 11.2715 14.9566 11.3889 14.3063 11.3889C13.656 11.3889 13.0648 11.2715 12.5032 11.0367C11.9416 10.8019 11.4687 10.479 11.0548 10.0974C10.641 9.68647 10.3159 9.21683 10.109 8.65914C9.87251 8.10145 9.75427 7.5144 9.75427 6.86865C9.75427 6.25226 9.87251 5.69456 10.109 5.16622C10.3454 4.63788 10.6706 4.16825 11.0844 3.75732C11.4982 3.34639 12.0007 3.05286 12.5623 2.81805C13.1239 2.58323 13.7151 2.46582 14.3654 2.46582ZM14.3358 3.96278C13.9516 3.96278 13.5673 4.05084 13.2422 4.1976C12.8875 4.34436 12.5919 4.54983 12.3259 4.814C12.0598 5.07817 11.8529 5.40104 11.7051 5.75327C11.5573 6.1055 11.4687 6.48707 11.4687 6.89801C11.4687 7.30894 11.5573 7.69052 11.7051 8.07209C11.8529 8.42432 12.0598 8.7472 12.3259 9.01137C12.5919 9.27554 12.8875 9.481 13.2422 9.65711C13.5969 9.80388 13.9811 9.89193 14.3654 9.89193C14.7497 9.89193 15.1339 9.80388 15.4886 9.65711C15.8433 9.51035 16.1389 9.30489 16.4049 9.01137C16.671 8.71784 16.8779 8.42432 17.0257 8.07209C17.1734 7.71987 17.2621 7.33829 17.2621 6.92736C17.2621 6.51643 17.1734 6.13485 17.0257 5.78262C16.8779 5.43039 16.671 5.10752 16.4049 4.84335C16.1389 4.57918 15.8433 4.37371 15.4886 4.22695C15.1044 4.05084 14.7497 3.96278 14.3358 3.96278Z" fill="white"/>
<path d="M28.051 11.1836H25.9819L23.6467 7.74938H23.4398V11.1836H21.755V2.64209H24.2379C24.7109 2.64209 25.1542 2.70079 25.5089 2.78885C25.8636 2.87691 26.1888 3.05302 26.4252 3.22913C26.6913 3.46395 26.8982 3.72812 27.046 4.08035C27.1938 4.40322 27.2824 4.7848 27.2824 5.16638C27.2824 5.54796 27.2233 5.90019 27.0755 6.25241C26.9277 6.57529 26.7504 6.83946 26.5139 7.04492C26.3366 7.19169 26.1592 7.30909 26.0114 7.39715C25.8636 7.48521 25.6272 7.54391 25.3316 7.60262L28.051 11.1836ZM23.9423 6.60464C24.4744 6.60464 24.8882 6.48723 25.1542 6.28177C25.4203 6.04695 25.568 5.72407 25.568 5.31314C25.568 4.46193 25.036 4.02164 23.9423 4.02164H23.4398V6.60464H23.9423Z" fill="white"/>
<path d="M31.7754 2.49512H32.9281L35.2633 8.07204L37.6871 2.49512H38.8398L40.2586 11.1834H38.5738L37.8348 5.92933L35.4702 11.3008H34.9972L32.7212 5.92933L31.864 11.1834H30.1792L31.7754 2.49512Z" fill="white"/>
<path d="M44.8106 4.1097V5.98824H47.7664V7.45586H44.8106V9.74533H47.8847V11.2129H43.1257V2.64209H47.8847V4.1097H44.8106Z" fill="white"/>
<path d="M57.0773 11.1836H55.0082L52.6731 7.74938H52.4662V11.1836H50.7814V2.64209H53.2643C53.7372 2.64209 54.1806 2.70079 54.5353 2.78885C54.89 2.87691 55.2151 3.05302 55.4516 3.22913C55.7176 3.46395 55.9245 3.72812 56.0723 4.08035C56.2201 4.40322 56.3088 4.7848 56.3088 5.16638C56.3088 5.54796 56.2497 5.90019 56.1019 6.25241C55.9541 6.57529 55.7767 6.83946 55.5403 7.04492C55.3629 7.19169 55.1856 7.30909 55.0378 7.39715C54.89 7.48521 54.6535 7.54391 54.3579 7.60262L57.0773 11.1836ZM52.9687 6.60464C53.5007 6.60464 53.9146 6.48723 54.1806 6.28177C54.4466 6.04695 54.5944 5.72407 54.5944 5.31314C54.5944 4.46193 54.0624 4.02164 52.9687 4.02164H52.4662V6.60464H52.9687Z" fill="white"/>
<path d="M61.1564 9.74533H63.7871V11.2129H59.4716V2.64209H61.1564V9.74533Z" fill="white"/>
<path d="M64.3488 2.64209H66.3292L68.1618 5.60666L69.9944 2.64209H72.0044L68.9894 7.25039V11.1542H67.3046V7.27974L64.3488 2.64209Z" fill="white"/>
</svg>
