<svg width="98" height="98" viewBox="0 0 98 98" fill="none" xmlns="http://www.w3.org/2000/svg">
<path d="M62.6111 5.80558C50.1111 2.61114 42.75 0.944472 40.1111 0.388916C37.4722 0.944472 30.1111 2.61114 17.6111 5.80558C9.27774 7.88892 3.86107 9.41669 0.66663 10.25C0.388853 16.2223 0.527741 29.4167 5.38885 48.8611C10.5277 69.6945 26.9166 82.6111 40.1111 87.8889C53.4444 82.75 69.8333 69.6945 74.8333 48.8611C79.5555 29.2778 79.8333 16.0834 79.5555 10.25C76.3611 9.27781 70.9444 7.88892 62.6111 5.80558Z" fill="#D3DDE2"/>
<path d="M78.8611 64H27.4722V96.9167H78.8611V64Z" fill="white"/>
<path d="M84.8335 43.4443H33.4446V95.111H84.8335V43.4443Z" fill="white"/>
<path d="M56.9167 96.2224L58.1667 88.5835" stroke="#698197" stroke-width="2" stroke-linejoin="round"/>
<path d="M75.9445 96.2222H53.1667" stroke="#698197" stroke-width="2" stroke-linecap="round" stroke-linejoin="round"/>
<path d="M70.8057 88.5835L72.0557 96.2224" stroke="#698197" stroke-width="2" stroke-linejoin="round"/>
<path d="M45.5278 88.5834H92.3334C94.4167 88.5834 96.0834 86.9167 96.0834 84.8334V46.9167C96.0834 44.8334 94.4167 43.1667 92.3334 43.1667H36.6389C34.5556 43.1667 32.8889 44.8334 32.8889 46.9167V63.3056" stroke="#698197" stroke-width="2" stroke-linejoin="round"/>
<path d="M45.5278 93.7224C45.5278 95.1113 44.4167 96.2224 43.0278 96.2224H30.3889C29 96.2224 27.8889 95.1113 27.8889 93.7224V65.9446C27.8889 64.5557 29 63.4446 30.3889 63.4446H43.0278C44.4167 63.4446 45.5278 64.5557 45.5278 65.9446V93.7224Z" stroke="#698197" stroke-width="2" stroke-linecap="round" stroke-linejoin="round"/>
<path d="M35.3889 91.0835H38.0278" stroke="#698197" stroke-width="2" stroke-linecap="round" stroke-linejoin="round"/>
<path d="M45.5278 81.0835H96.0834" stroke="#698197" stroke-width="2" stroke-linecap="round" stroke-linejoin="round"/>
</svg>
