<svg width="221" height="55" viewBox="0 0 221 55" fill="none" xmlns="http://www.w3.org/2000/svg">
<path d="M63.7764 9.90417C64.333 9.99303 64.8963 10.0335 65.46 10.0252C66.0241 10.0325 66.5877 9.99197 67.1449 9.90417C62.5456 15.8311 58.2152 21.8308 54.0284 27.759H53.6695C50.2474 22.3852 45.5359 15.2272 41.2029 9.90417C42.5276 10.0005 43.4399 10.0252 44.3822 10.0252C45.3245 10.0252 46.2342 10.0005 47.5576 9.90417C49.7959 14.225 52.5849 18.5186 55.3322 22.5753C57.8563 19.1433 61.1779 14.0546 63.7764 9.90417" fill="white"/>
<path d="M92.4579 10.2647L93.0361 12.9978L92.7476 13.0967C92.193 12.1609 90.9205 11.9449 89.4731 11.9449H79.4823C79.4588 13.7214 79.3374 15.5473 79.3374 17.3199H85.2314C86.3642 17.3199 88.8858 17.2236 89.7993 17.0063C89.7422 17.4516 89.7182 17.9005 89.7276 18.3494C89.7188 18.7905 89.7428 19.2316 89.7993 19.6691C88.8858 19.4296 86.359 19.358 85.2314 19.358H79.34C79.34 21.2998 79.4614 23.2195 79.4849 25.1626H88.5112C90.9413 25.1626 92.2178 24.9231 93.8061 23.2429L94.1167 23.39L92.4827 26.7491C92.266 27.1785 92.193 27.2033 91.6631 27.2033C84.8999 27.2033 82.6577 27.0822 80.5212 27.0822C78.523 27.0822 76.0929 27.1551 74.0947 27.2033C74.3748 24.2926 74.5054 21.3696 74.4863 18.4457C74.4863 12.6399 74.2709 11.5831 74.0947 9.90027C76.1177 9.94972 78.5961 10.0226 80.6204 10.0226C82.6185 10.0226 84.8816 9.90027 92.0272 9.90027C92.2882 9.90027 92.3874 9.99918 92.4605 10.2621" fill="white"/>
<path d="M102.387 9.42387C103.806 10.4117 109.318 14.2705 114.372 17.1793C117.043 18.6109 118.922 19.7458 120.463 20.6074C120.509 18.9285 120.582 17.5138 120.582 15.9286C120.582 14.2744 120.509 12.4485 120.268 9.90411C120.767 9.99643 121.274 10.0357 121.782 10.0212C122.29 10.035 122.798 9.99439 123.298 9.90021C122.98 13.0571 122.828 16.2282 122.84 19.4009C122.84 22.1132 122.939 24.923 123.131 27.7524H122.813C121.394 26.792 116.509 23.4107 112.49 21.0577C109.144 19.2799 106.639 17.7429 104.739 16.6652C104.691 17.7233 104.667 18.8244 104.667 19.9788C104.662 22.3915 104.782 24.8029 105.026 27.2032C104.526 27.1235 104.019 27.0826 103.512 27.0809C103.004 27.0814 102.497 27.1223 101.996 27.2032C102.212 25.2601 102.31 22.4503 102.31 19.5246C102.31 15.8805 102.163 12.0359 101.972 9.34839H102.355L102.387 9.42387Z" fill="white"/>
<path d="M142.11 27.0848C141.221 27.0848 140.256 27.1577 139.369 27.2071C139.644 24.2962 139.772 21.3733 139.752 18.4496C139.752 14.8953 139.655 13.1227 139.56 11.8954H133.906C132.87 11.8954 132.148 12.278 131.403 13.3348L131.088 13.2372L131.668 9.82996H132.027C132.58 9.87941 133.135 9.90284 133.854 9.90284H150.316C151.062 9.90284 151.807 9.90284 152.191 9.82996H152.529L153.105 13.2372L152.815 13.3348C152.07 12.278 151.323 11.8954 150.312 11.8954H144.634C144.535 13.1188 144.491 14.8888 144.491 18.4496C144.491 23.1531 144.706 25.5022 144.85 27.2071C143.967 27.1577 143.002 27.0848 142.109 27.0848" fill="white"/>
<path d="M178.897 10.2647L179.476 12.9978L179.188 13.0967C178.636 12.1609 177.36 11.9449 175.912 11.9449H165.925C165.9 13.7214 165.779 15.5473 165.779 17.3199H171.673C172.805 17.3199 175.327 17.2236 176.248 17.0063C176.189 17.4514 176.164 17.9005 176.174 18.3494C176.165 18.7905 176.19 19.2317 176.248 19.6691C175.335 19.4296 172.805 19.358 171.673 19.358H165.779C165.779 21.2998 165.9 23.2195 165.925 25.1626H174.951C177.381 25.1626 178.656 24.9231 180.246 23.2429L180.557 23.39L178.921 26.7491C178.706 27.1785 178.633 27.2033 178.103 27.2033C171.339 27.2033 169.098 27.0822 166.96 27.0822C164.963 27.0822 162.532 27.1551 160.535 27.2033C160.814 24.2926 160.944 21.3696 160.926 18.4457C160.926 12.6399 160.711 11.5831 160.535 9.90027C162.556 9.94972 165.036 10.0226 167.06 10.0226C169.057 10.0226 171.32 9.90027 178.468 9.90027C178.729 9.90027 178.827 9.99918 178.899 10.2621" fill="white"/>
<path d="M194.195 27.0848C192.703 27.0848 190.945 27.1577 189.454 27.2071C189.621 25.5022 189.861 23.1492 189.861 18.4496C189.861 12.6424 189.646 11.5856 189.454 9.90283C190.346 9.95229 191.329 10.0252 192.222 10.0252C193.115 10.0252 194.076 9.95229 194.963 9.90283C194.767 11.583 194.571 12.6359 194.571 18.4496C194.571 21.5913 194.646 23.6554 194.74 25.169H203.6C205.382 25.169 206.201 25.0962 207.907 23.2975L208.218 23.4446L206.44 26.8753C206.292 27.1356 206.179 27.2136 205.742 27.2136C194.938 27.2136 194.909 27.0835 194.193 27.0835" fill="white"/>
<path d="M28.7454 11.2212C28.2651 10.0499 27.7848 9.90283 26.6259 9.90283C26.0751 9.90283 25.0402 10.0213 24.124 10.0213C23.2587 10.0213 21.9574 9.90283 21.066 9.90283V10.2165C22.3907 10.3583 22.9898 10.4768 23.4466 10.9844L24.5755 12.7609C26.2852 15.4939 31.3818 25.7183 32.0787 27.2071C33.4243 27.133 34.732 27.0848 35.5752 27.0848C36.3909 27.0848 37.2353 27.133 38.5848 27.2071C34.4554 21.2295 32.1662 17.1286 28.7454 11.2212Z" fill="white"/>
<path d="M30.245 29.1177L29.9344 29.2648C28.2273 27.4636 26.8217 27.4011 24.9045 27.3217C22.1637 27.2098 16.7983 27.3894 12.4509 27.7486C12.4509 27.7486 19.0118 17.6948 22.0658 13.0928C22.366 13.5847 23.1647 14.7326 23.5967 15.4862C21.7813 18.4249 18.9883 22.8186 17.2903 25.3578C17.2903 25.3578 24.5912 25.1209 27.7692 25.3578C28.2012 25.3877 28.32 25.4294 28.4675 25.6949L30.245 29.1177Z" fill="white"/>
<path d="M64.5256 40.2335C64.2998 39.8288 63.6968 39.5828 62.6501 39.5828H58.4946V42.3783H62.6462C63.7255 42.3783 64.2776 42.161 64.5321 41.7588C64.6608 41.5224 64.7234 41.2559 64.7135 40.9871C64.7161 40.7231 64.6524 40.4627 64.5282 40.2296L64.5256 40.2335ZM65.5123 42.5124C65.0437 43.2048 64.1484 43.4937 62.8172 43.4937H58.4972V45.5383H57.3082V38.5104H62.842C64.2398 38.5104 65.1038 38.8436 65.4849 39.4344C65.7854 39.9041 65.936 40.4537 65.9168 41.0105C65.9168 41.6391 65.7602 42.1532 65.5096 42.5111" fill="white"/>
<path d="M75.2289 40.1346L74.7969 39.4435L74.3636 40.1346L72.5652 42.7701H77.0026L75.2289 40.1346ZM70.7732 45.5383H69.4838L74.1548 38.5104H75.5082L80.0958 45.5383H78.7593L77.6173 43.8373H71.9387L70.7732 45.5383Z" fill="white"/>
<path d="M92.172 40.0527C91.945 39.7572 91.5521 39.5919 90.9452 39.5919H86.2846V41.5168H90.9831C91.6604 41.5168 92.0194 41.3737 92.2008 41.0925C92.2886 40.9331 92.3335 40.7538 92.3313 40.5719C92.338 40.3854 92.2814 40.202 92.1707 40.0514L92.172 40.0527ZM93.2514 41.591C93.0896 41.8352 92.8738 42.0391 92.6206 42.1871C92.3675 42.3351 92.0836 42.4232 91.791 42.4448L94.4012 45.5396H92.9917L90.5302 42.5996H86.2846V45.5396H85.0852V38.5234H90.8017C92.0115 38.5234 92.775 38.8579 93.1731 39.3512C93.4144 39.681 93.5351 40.0834 93.515 40.4913C93.5319 40.8769 93.4415 41.2598 93.254 41.5975" fill="white"/>
<path d="M103.558 39.631V45.5383H102.331V39.631H98.301V38.5156H107.571V39.631H103.558Z" fill="white"/>
<path d="M119.888 45.5383L113.748 40.0006V45.5383H112.567V38.5156H113.863L120.013 44.026V38.5156H121.15V45.5383H119.888Z" fill="white"/>
<path d="M127.443 45.5383V38.5156H135.594V39.6206H128.624V41.4556H135.433V42.5268H128.624V44.4321H135.675V45.5383H127.443Z" fill="white"/>
<path d="M148.508 40.0527C148.28 39.7572 147.887 39.5919 147.28 39.5919H142.619V41.5168H147.318C147.994 41.5168 148.353 41.3737 148.534 41.0925C148.622 40.9334 148.667 40.7539 148.665 40.5719C148.674 40.3853 148.617 40.2012 148.505 40.0514L148.508 40.0527ZM149.586 41.591C149.424 41.8352 149.208 42.0391 148.955 42.1871C148.701 42.3351 148.417 42.4232 148.124 42.4448L150.735 45.5396H149.318L146.857 42.5996H142.611V45.5396H141.412V38.5234H147.13C148.338 38.5234 149.102 38.8579 149.5 39.3512C149.741 39.681 149.862 40.0834 149.842 40.4913C149.858 40.8769 149.768 41.2596 149.581 41.5975" fill="white"/>
<path d="M160.364 45.6451C156.955 45.6451 155.676 44.7913 155.522 43.2438H156.827C156.901 44.0156 157.765 44.5739 160.391 44.5739C162.924 44.5739 163.627 44.1093 163.627 43.4768C163.627 42.6491 161.994 42.558 160.216 42.4356C158.062 42.2938 155.69 42.0946 155.69 40.503C155.69 39.3525 156.918 38.3998 159.947 38.3998C163.221 38.3998 164.457 39.3629 164.689 40.6396H163.347C163.229 39.9121 162.137 39.4592 159.984 39.4592C157.692 39.4592 156.926 39.7546 156.926 40.378C156.926 41.2331 158.773 41.2162 160.684 41.3411C162.723 41.4712 164.831 41.7446 164.831 43.3987C164.831 44.8199 163.591 45.6477 160.362 45.6477" fill="white"/>
</svg>
