<svg width="30" height="28" viewBox="0 0 30 28" fill="none" xmlns="http://www.w3.org/2000/svg">
<path d="M19.2001 2.47355L29.2516 19.5905C30.6961 22.049 29.9866 25.2834 27.6661 26.814C26.8873 27.3296 25.9794 27.6044 25.0516 27.6053H4.94701C2.21551 27.6053 0 25.2589 0 22.3618C0 21.3818 0.259501 20.4233 0.747002 19.5905L10.8 2.47355C12.243 0.015119 15.294 -0.737899 17.6145 0.792676C18.2566 1.21596 18.7996 1.79108 19.2001 2.47355ZM15 21.4708C15.3979 21.4708 15.7794 21.3092 16.0607 21.0216C16.342 20.734 16.5 20.3439 16.5 19.9371C16.5 19.5304 16.342 19.1403 16.0607 18.8527C15.7794 18.5651 15.3979 18.4035 15 18.4035C14.6022 18.4035 14.2207 18.5651 13.9394 18.8527C13.6581 19.1403 13.5 19.5304 13.5 19.9371C13.5 20.3439 13.6581 20.734 13.9394 21.0216C14.2207 21.3092 14.6022 21.4708 15 21.4708ZM15 7.66799C14.6022 7.66799 14.2207 7.82958 13.9394 8.11719C13.6581 8.4048 13.5 8.79489 13.5 9.20164V15.3362C13.5 15.743 13.6581 16.133 13.9394 16.4207C14.2207 16.7083 14.6022 16.8699 15 16.8699C15.3979 16.8699 15.7794 16.7083 16.0607 16.4207C16.342 16.133 16.5 15.743 16.5 15.3362V9.20164C16.5 8.79489 16.342 8.4048 16.0607 8.11719C15.7794 7.82958 15.3979 7.66799 15 7.66799Z" fill="#688197"/>
</svg>
